<?xml version="1.0" standalone="no"?>
<!DOCTYPE svg PUBLIC "-//W3C//DTD SVG 20010904//EN"
 "http://www.w3.org/TR/2001/REC-SVG-20010904/DTD/svg10.dtd">
<svg version="1.0" xmlns="http://www.w3.org/2000/svg"
 width="800.000000pt" height="800.000000pt" viewBox="0 0 800.000000 800.000000"
 preserveAspectRatio="xMidYMid meet">
<metadata>
Created by potrace 1.11, written by Peter Selinger 2001-2013
</metadata>
<g transform="translate(0.000000,800.000000) scale(0.100000,-0.100000)"
fill="#000000" stroke="none">
<path d="M3607 7644 c-4 -4 -56 -11 -115 -15 -59 -4 -147 -15 -197 -24 -49 -9
-137 -23 -195 -31 -58 -9 -150 -22 -205 -30 -55 -8 -127 -18 -160 -23 -34 -4
-70 -13 -82 -19 -12 -7 -39 -12 -60 -12 -22 0 -48 -7 -59 -15 -10 -8 -32 -15
-49 -15 -16 0 -47 -6 -70 -14 -22 -8 -67 -22 -100 -31 -33 -10 -68 -21 -77
-26 -10 -5 -24 -9 -33 -9 -8 0 -29 -6 -47 -14 -18 -8 -53 -22 -78 -31 -25 -10
-58 -23 -75 -31 -16 -7 -55 -22 -85 -34 -122 -49 -347 -166 -485 -251 -48 -30
-95 -59 -104 -64 -84 -48 -353 -257 -474 -368 -226 -205 -687 -722 -687 -768
0 -24 23 -27 250 -34 356 -11 450 -17 450 -31 0 -7 -6 -25 -14 -41 -8 -15 -19
-39 -24 -53 -6 -14 -29 -63 -50 -110 -22 -47 -50 -110 -61 -140 -12 -30 -29
-68 -37 -83 -8 -16 -14 -39 -14 -52 0 -13 -4 -26 -9 -30 -5 -3 -12 -20 -16
-38 -4 -17 -12 -50 -20 -72 -45 -138 -85 -285 -94 -355 -4 -30 -13 -68 -19
-83 -7 -16 -12 -44 -12 -63 0 -20 -5 -45 -11 -57 -21 -39 -53 -758 -39 -853 6
-32 14 -104 20 -159 5 -55 14 -120 19 -145 5 -25 12 -81 15 -126 3 -44 10 -93
16 -108 5 -15 10 -55 10 -88 0 -54 18 -133 41 -180 5 -10 9 -26 9 -35 0 -10 7
-31 15 -46 8 -15 17 -43 21 -63 3 -19 10 -37 15 -40 5 -3 9 -15 9 -27 0 -12 7
-35 15 -51 8 -15 15 -37 15 -47 0 -10 6 -33 14 -51 19 -45 36 -97 45 -133 7
-28 45 -102 113 -225 14 -25 47 -85 73 -135 49 -96 82 -138 97 -129 6 4 7 23
4 43 -13 73 -25 138 -39 206 -28 133 -49 240 -62 320 -8 44 -17 94 -20 110 -7
28 -6 29 8 10 24 -32 74 -131 80 -156 3 -13 15 -49 26 -79 33 -83 46 -119 70
-190 12 -36 26 -73 32 -82 5 -10 9 -23 9 -29 0 -6 6 -25 14 -42 7 -18 22 -52
32 -77 10 -25 21 -47 24 -50 6 -5 38 -54 55 -82 9 -16 37 -60 159 -250 79
-124 129 -179 335 -368 57 -52 122 -112 145 -133 59 -55 188 -152 226 -170 8
-4 27 -15 42 -25 75 -48 322 -185 388 -215 41 -19 122 -51 180 -70 158 -54
173 -59 195 -68 26 -11 96 -35 170 -60 33 -10 69 -23 80 -28 63 -26 177 -60
235 -70 25 -4 55 -13 67 -19 12 -7 48 -12 80 -12 32 0 74 -5 94 -10 19 -6 103
-14 185 -20 82 -5 214 -15 292 -21 107 -9 178 -9 275 0 246 21 311 29 315 40
2 6 27 11 56 11 30 0 60 6 72 15 10 8 37 15 59 15 22 0 49 7 59 15 11 8 34 15
51 15 17 0 35 4 40 9 16 14 111 41 144 41 21 0 31 5 31 15 0 10 10 15 34 15
18 0 39 7 46 15 8 10 32 15 69 16 40 1 49 3 31 8 l-25 7 27 6 c15 3 31 1 36
-4 7 -7 12 -3 16 9 5 15 14 19 37 18 22 -1 29 2 25 12 -4 11 -1 13 14 8 11 -4
20 -2 20 3 0 5 14 12 30 15 17 4 30 11 30 17 0 7 -7 7 -21 0 -11 -7 -23 -10
-25 -7 -3 2 9 10 26 17 16 7 30 16 30 21 0 5 9 9 20 9 11 0 20 5 20 10 0 6 9
10 20 10 10 0 23 6 27 14 8 13 53 41 53 32 0 -2 -7 -12 -16 -21 -9 -9 -14 -18
-11 -21 9 -9 46 38 40 52 -6 17 8 18 26 2 11 -11 12 -10 6 1 -6 11 -2 13 18 9
15 -3 24 -1 21 3 -3 5 -15 9 -27 9 -18 0 -19 2 -7 10 8 5 23 7 33 4 9 -3 17
-1 17 5 0 6 -8 12 -17 13 -10 0 2 4 27 7 31 4 44 10 42 20 -2 9 3 11 13 7 10
-4 15 -1 13 8 -3 16 40 58 52 51 4 -3 11 5 15 18 8 22 8 22 12 -3 8 -43 22
-45 16 -2 -6 44 7 51 41 23 14 -12 16 -11 16 7 0 11 -8 22 -17 24 -13 3 -7 9
20 21 20 9 37 23 37 31 0 8 5 18 11 22 9 5 10 -1 5 -20 -3 -14 -2 -26 3 -26 5
0 12 17 17 38 l8 37 6 -40 7 -40 2 43 c0 26 6 42 14 42 8 0 7 4 -3 10 -12 8
-10 10 9 10 18 0 22 -4 19 -18 -3 -11 0 -19 7 -19 8 0 12 13 11 31 -1 25 3 32
21 34 13 2 20 8 17 16 -3 7 2 19 11 26 14 12 18 11 27 -1 8 -11 9 -10 4 4 -3
11 0 20 9 24 10 3 14 13 10 27 -5 17 -4 18 4 6 10 -13 15 -8 12 13 0 4 4 7 9
7 15 0 52 40 38 40 -7 1 -2 7 12 15 14 8 21 14 16 15 -16 0 26 40 43 40 14 0
14 2 1 10 -13 8 -11 11 7 16 13 4 20 10 17 15 -3 5 0 9 6 9 6 0 15 11 22 25 6
13 14 22 19 20 4 -3 10 4 14 15 3 11 13 20 20 20 8 0 12 6 9 14 -3 8 8 28 25
45 17 18 31 38 31 46 0 8 5 15 10 15 6 0 10 7 10 15 0 8 4 15 9 15 5 0 14 14
20 30 5 17 15 30 20 30 6 0 11 7 11 15 0 9 7 18 15 21 8 4 12 10 10 15 -3 4 3
17 15 29 11 11 20 29 20 41 0 11 5 17 10 14 6 -3 10 5 10 19 0 14 7 29 15 33
8 5 16 21 17 36 1 15 6 27 10 27 5 0 13 12 18 28 15 40 32 73 54 106 11 16 15
26 8 22 -8 -5 -9 1 -1 24 6 16 15 33 20 36 5 3 9 18 9 33 0 15 4 31 9 36 6 6
13 26 16 45 3 19 10 39 16 45 5 5 9 26 9 46 0 21 7 44 15 53 9 9 15 33 15 64
0 28 5 52 11 54 6 2 15 43 19 93 5 50 13 112 20 138 17 67 10 641 -7 659 -8 7
-13 38 -13 73 0 34 -7 72 -15 89 -8 15 -15 48 -15 73 0 26 -6 51 -15 59 -8 9
-15 29 -15 45 0 17 -6 32 -15 35 -9 4 -15 19 -15 40 0 19 -4 34 -10 34 -5 0
-10 7 -10 16 0 22 -91 207 -107 217 -7 4 -13 16 -13 26 0 11 -7 21 -15 25 -8
3 -15 11 -15 17 0 15 -39 49 -55 49 -14 0 -75 -59 -75 -72 0 -4 -12 -20 -27
-36 -16 -16 -35 -39 -43 -52 -8 -13 -24 -33 -35 -45 -42 -48 -61 -71 -85 -108
-14 -20 -28 -37 -32 -37 -5 0 -8 -4 -8 -10 0 -5 -12 -23 -27 -39 -16 -17 -48
-56 -73 -88 -25 -32 -51 -62 -57 -66 -7 -4 -13 -12 -13 -18 0 -5 -11 -22 -24
-37 -57 -63 -69 -78 -83 -99 -21 -31 -34 -29 -60 10 -13 17 -53 63 -89 102
-36 38 -87 94 -112 125 -26 30 -57 65 -69 77 -13 12 -23 27 -23 33 0 5 -7 10
-15 10 -8 0 -15 4 -15 9 0 5 -18 29 -41 53 -22 23 -55 60 -72 82 -18 21 -54
63 -82 93 -148 163 -159 169 -168 106 -3 -21 -5 -686 -6 -1478 0 -1438 0
-1439 -21 -1447 -11 -4 -20 -12 -20 -18 0 -5 -9 -10 -20 -10 -11 0 -20 -4 -20
-8 0 -5 -19 -16 -42 -26 -24 -10 -56 -25 -72 -32 -16 -8 -36 -14 -45 -14 -9 0
-25 -6 -36 -14 -11 -7 -39 -17 -62 -21 -24 -4 -43 -11 -43 -16 0 -5 -21 -9
-46 -9 -25 0 -60 -6 -77 -14 -18 -8 -72 -17 -122 -19 -49 -3 -129 -10 -176
-17 -48 -6 -108 -10 -135 -8 l-49 3 -3 2164 -2 2164 37 -7 c21 -3 269 -6 551
-6 449 0 513 -2 518 -15 4 -8 12 -15 20 -15 8 0 14 -7 14 -15 0 -8 5 -15 11
-15 6 0 24 -13 41 -30 16 -16 34 -30 39 -30 6 0 7 -4 4 -10 -3 -5 3 -10 14
-10 12 0 21 -7 21 -15 0 -8 6 -15 13 -15 7 0 24 -13 37 -30 14 -16 28 -29 32
-30 3 0 28 -21 55 -47 27 -27 66 -61 88 -77 22 -17 49 -40 60 -53 11 -13 26
-23 33 -23 7 0 12 -7 12 -17 0 -9 3 -14 6 -11 3 3 19 -7 35 -23 16 -16 37 -29
45 -29 11 0 14 -6 10 -16 -3 -8 -2 -12 4 -9 6 3 10 1 10 -4 0 -6 4 -11 9 -11
5 0 7 9 4 20 -4 15 0 20 13 20 14 0 16 -3 6 -9 -10 -6 -10 -10 3 -21 13 -11
15 -9 15 9 0 11 5 21 11 21 8 0 7 6 -2 18 -13 15 -12 16 3 4 14 -11 19 -10 32
10 9 12 16 28 16 36 0 7 8 12 18 10 12 -2 16 3 14 16 -3 18 -2 18 13 2 21 -20
21 -20 21 3 0 11 -4 17 -8 15 -15 -10 -8 5 16 30 13 15 32 26 42 27 11 0 13 3
7 6 -21 8 -15 23 9 23 12 0 19 2 16 5 -3 3 7 19 22 35 28 30 48 40 34 18 -4
-7 -3 -8 4 -4 7 4 12 13 12 20 0 7 11 25 25 40 18 19 25 22 25 12 0 -24 14
-19 26 9 9 18 9 25 0 29 -6 2 -2 5 8 5 11 1 17 4 14 7 -4 3 2 14 13 25 20 20
34 26 24 9 -3 -5 -1 -10 4 -10 6 0 11 11 11 24 0 21 4 23 35 19 24 -2 41 2 52
12 15 15 14 16 -3 13 -10 -2 -22 -7 -26 -13 -4 -6 -8 -2 -8 8 0 16 17 17 214
17 l214 0 31 -39 c17 -21 31 -46 31 -55 0 -9 4 -16 10 -16 5 0 12 -11 16 -25
3 -14 10 -25 15 -25 5 0 9 -6 9 -14 0 -7 7 -19 15 -26 8 -7 15 -19 15 -27 0
-8 7 -21 15 -29 8 -9 15 -24 15 -34 0 -10 7 -20 15 -24 8 -3 15 -14 15 -24 0
-11 7 -25 15 -32 8 -7 15 -18 15 -25 0 -8 6 -26 14 -42 8 -15 20 -41 26 -58 7
-16 18 -43 26 -60 7 -16 16 -42 20 -57 3 -16 10 -28 15 -28 5 0 9 -15 9 -34 0
-19 5 -36 11 -38 6 -2 15 -26 20 -53 5 -28 14 -51 19 -53 6 -2 10 -21 10 -42
0 -21 7 -51 15 -66 8 -16 15 -43 15 -61 0 -17 4 -34 9 -37 4 -3 11 -37 15 -76
4 -38 11 -72 17 -75 5 -4 9 -32 9 -63 0 -31 7 -84 15 -117 11 -46 14 -138 15
-395 0 -193 -4 -340 -9 -345 -15 -16 -47 -335 -37 -362 12 -29 36 6 36 52 0
26 6 48 15 55 9 7 15 29 15 55 0 26 6 48 15 55 9 7 15 30 15 54 0 22 7 50 15
60 8 11 15 36 15 55 1 20 7 47 15 61 8 14 14 42 15 63 0 23 4 36 10 32 5 -3 9
-18 8 -33 -1 -15 -1 -54 0 -86 3 -84 19 -60 27 39 3 44 11 96 16 115 35 129
48 537 24 765 -17 170 -41 343 -54 395 -5 19 -17 71 -26 115 -10 44 -23 100
-30 125 -24 83 -77 255 -86 278 -5 13 -9 38 -9 56 0 17 -7 41 -15 52 -8 10
-15 34 -15 52 0 17 -4 32 -9 32 -5 0 -11 18 -15 40 -3 22 -11 40 -16 40 -6 0
-10 11 -10 24 0 14 -7 31 -15 40 -8 8 -15 24 -15 35 0 12 -4 21 -10 21 -5 0
-13 12 -16 26 -4 14 -20 53 -35 85 -16 33 -29 63 -29 68 0 5 -3 11 -7 13 -5 2
-18 24 -31 51 -13 26 -28 47 -33 47 -5 0 -9 8 -9 19 0 10 -7 24 -15 31 -8 7
-15 16 -15 21 0 12 -62 113 -72 117 -4 2 -8 10 -8 18 0 8 -6 17 -14 20 -8 3
-17 16 -20 30 -4 13 -11 24 -16 24 -6 0 -10 7 -10 15 0 8 -4 15 -9 15 -5 0
-12 8 -16 19 -3 10 -16 30 -29 44 -13 14 -45 54 -72 89 -26 35 -51 65 -54 68
-4 3 -34 37 -67 75 -77 89 -233 247 -302 305 -30 25 -75 64 -100 87 -25 24
-49 43 -53 43 -4 0 -13 6 -20 13 -31 30 -97 77 -107 77 -7 0 -14 7 -17 15 -4
8 -12 15 -19 15 -7 0 -15 7 -19 15 -3 8 -10 15 -17 15 -6 0 -28 14 -49 30 -21
17 -41 30 -45 30 -5 0 -22 11 -39 24 -17 13 -41 26 -53 30 -13 4 -23 12 -23
17 0 5 -6 9 -14 9 -8 0 -21 6 -28 13 -7 6 -45 28 -83 47 -39 19 -72 37 -75 40
-13 13 -74 40 -90 40 -10 0 -20 7 -24 15 -3 8 -16 15 -29 15 -14 0 -30 7 -37
15 -7 8 -23 15 -36 15 -13 0 -24 4 -24 10 0 5 -16 12 -35 16 -19 3 -35 10 -35
15 0 4 -16 11 -35 15 -19 3 -38 10 -41 15 -3 5 -13 9 -22 9 -9 0 -30 7 -46 15
-15 8 -38 15 -50 15 -11 0 -30 7 -40 15 -11 8 -32 15 -46 15 -14 0 -35 7 -46
15 -10 8 -35 15 -56 15 -20 0 -38 5 -40 11 -2 6 -26 13 -53 16 -28 3 -55 10
-62 15 -6 5 -37 12 -68 15 -30 3 -58 10 -61 14 -3 5 -26 9 -52 9 -26 0 -63 5
-82 11 -19 7 -73 16 -120 21 -105 12 -993 22 -1003 12z m577 -2266 c2 -13 9
-133 15 -268 11 -231 14 -1335 4 -1297 -2 9 -8 17 -12 17 -4 0 -18 21 -32 46
-37 70 -46 85 -58 97 -6 6 -11 19 -11 29 0 10 -3 18 -8 18 -4 0 -19 21 -32 48
-14 26 -28 49 -31 52 -4 3 -9 15 -13 28 -4 12 -12 22 -17 22 -5 0 -9 6 -9 14
0 8 -6 21 -14 28 -7 8 -17 24 -20 36 -4 12 -12 22 -17 22 -5 0 -9 9 -9 20 0
11 -7 23 -15 26 -8 4 -15 15 -15 25 0 10 -4 19 -10 19 -5 0 -10 5 -10 12 0 6
-7 20 -17 30 -15 17 -44 18 -505 18 -276 0 -488 -4 -488 -9 0 -5 -8 -12 -17
-15 -31 -11 -62 -32 -80 -54 -43 -50 -50 -59 -56 -75 -3 -9 -11 -17 -17 -17
-5 0 -10 -8 -10 -19 0 -10 -7 -24 -15 -31 -8 -7 -15 -23 -15 -36 0 -12 -4 -25
-9 -29 -5 -3 -13 -20 -17 -37 -3 -18 -10 -39 -14 -48 -37 -75 -55 -542 -25
-671 8 -38 15 -84 15 -103 0 -19 5 -38 10 -41 6 -3 10 -21 10 -38 0 -18 7 -45
15 -61 8 -15 15 -38 15 -50 0 -12 7 -31 15 -42 8 -10 15 -29 15 -42 0 -12 7
-25 15 -28 8 -4 15 -16 15 -29 0 -12 7 -28 15 -35 8 -7 15 -17 15 -23 0 -10
75 -132 94 -154 6 -6 28 -32 49 -56 59 -70 98 -109 147 -147 25 -19 56 -45 70
-58 14 -12 33 -25 43 -28 9 -3 17 -10 17 -15 0 -5 6 -9 14 -9 8 0 16 -4 18 -8
3 -7 86 -61 118 -75 8 -4 29 -16 45 -27 17 -11 36 -22 43 -25 6 -3 18 -7 25
-10 6 -3 32 -16 56 -30 24 -14 52 -25 63 -25 10 0 18 -4 18 -10 0 -5 6 -10 13
-10 6 0 24 -6 39 -14 15 -8 40 -17 57 -21 17 -4 33 -11 36 -16 4 -5 19 -9 36
-9 16 0 29 -4 29 -10 0 -5 17 -12 38 -16 20 -4 46 -13 57 -20 11 -8 31 -14 46
-14 15 0 40 -7 55 -15 16 -8 41 -15 56 -15 15 0 29 -4 33 -9 3 -6 27 -13 53
-16 26 -4 59 -12 75 -18 l27 -12 0 -484 0 -483 -27 7 c-16 3 -57 10 -93 14
-36 4 -75 13 -87 19 -12 7 -41 12 -65 12 -24 1 -54 7 -68 15 -14 8 -41 14 -61
15 -20 0 -50 7 -65 15 -16 8 -41 15 -55 15 -15 0 -40 7 -55 15 -16 8 -37 15
-47 15 -19 0 -163 44 -215 66 -18 8 -40 14 -50 14 -9 0 -26 7 -36 15 -11 8
-30 15 -42 15 -12 0 -27 7 -34 15 -7 8 -19 15 -27 15 -14 0 -27 5 -100 44 -17
9 -38 16 -47 16 -9 0 -16 5 -16 10 0 6 -8 10 -19 10 -10 0 -24 7 -31 15 -7 8
-21 15 -31 15 -10 0 -21 5 -24 11 -4 5 -17 15 -28 20 -12 5 -35 18 -52 29 -16
11 -37 23 -45 27 -39 20 -150 97 -150 104 0 5 -6 9 -13 9 -7 0 -27 14 -45 30
-18 16 -35 30 -38 30 -19 0 -354 338 -354 357 0 6 -51 75 -64 88 -16 15 -87
122 -102 155 -4 8 -10 17 -13 20 -3 3 -17 28 -31 55 -14 28 -27 52 -30 55 -11
11 -70 136 -70 148 0 7 -7 20 -15 28 -8 9 -15 26 -15 40 0 13 -4 24 -10 24 -5
0 -12 16 -16 35 -3 19 -10 37 -14 40 -5 3 -11 23 -15 45 -4 22 -11 42 -16 46
-5 3 -9 14 -9 26 0 11 -6 34 -14 51 -8 18 -17 52 -19 77 -3 24 -11 46 -16 48
-6 2 -11 26 -11 53 0 28 -6 60 -12 72 -7 12 -16 58 -20 102 -4 44 -12 136 -18
205 -12 135 -6 424 10 466 6 14 10 54 10 89 0 36 6 75 15 91 8 16 15 48 15 70
0 23 7 55 15 70 8 16 15 43 15 59 0 17 7 39 15 49 8 11 15 30 15 42 0 12 7 35
15 50 8 16 15 37 15 46 0 9 4 19 9 22 5 3 12 22 15 41 4 19 11 35 16 35 6 0
10 8 10 18 0 10 7 27 15 38 8 10 15 26 15 35 0 9 7 22 15 29 8 7 15 21 15 31
0 11 4 19 8 19 5 0 16 17 25 38 9 20 37 68 62 106 25 38 45 73 45 78 0 5 7 11
15 14 8 4 15 11 15 18 0 6 10 22 23 36 12 14 38 45 56 70 19 25 47 57 63 72
15 15 28 29 28 32 0 7 38 46 44 46 2 0 27 23 55 52 96 97 -8 88 968 88 l863 0
4 -22z m1716 -4558 c0 -5 -5 -10 -11 -10 -5 0 -7 5 -4 10 3 6 8 10 11 10 2 0
4 -4 4 -10z"/>
<path d="M4565 5330 c3 -5 13 -10 21 -10 8 0 14 5 14 10 0 6 -9 10 -21 10 -11
0 -17 -4 -14 -10z"/>
<path d="M6983 5323 c15 -2 37 -2 50 0 12 2 0 4 -28 4 -27 0 -38 -2 -22 -4z"/>
<path d="M6968 5273 c7 -3 16 -2 19 1 4 3 -2 6 -13 5 -11 0 -14 -3 -6 -6z"/>
<path d="M6640 5249 c0 -5 5 -7 10 -4 6 3 10 8 10 11 0 2 -4 4 -10 4 -5 0 -10
-5 -10 -11z"/>
<path d="M6600 5204 c0 -8 5 -12 10 -9 6 4 8 11 5 16 -9 14 -15 11 -15 -7z"/>
<path d="M6631 5194 c0 -11 3 -14 6 -6 3 7 2 16 -1 19 -3 4 -6 -2 -5 -13z"/>
<path d="M6491 5147 c-6 -8 -9 -22 -5 -31 7 -18 24 -22 24 -6 0 6 -5 10 -11
10 -8 0 -7 5 1 15 7 9 11 18 8 20 -3 3 -10 -1 -17 -8z"/>
<path d="M6465 5100 c-3 -5 -1 -10 4 -10 6 0 11 5 11 10 0 6 -2 10 -4 10 -3 0
-8 -4 -11 -10z"/>
<path d="M6435 5080 c-3 -5 -1 -10 4 -10 6 0 11 5 11 10 0 6 -2 10 -4 10 -3 0
-8 -4 -11 -10z"/>
<path d="M6470 5060 c0 -5 4 -10 9 -10 6 0 13 5 16 10 3 6 -1 10 -9 10 -9 0
-16 -4 -16 -10z"/>
<path d="M6450 5030 c0 -5 6 -10 14 -10 8 0 18 5 21 10 3 6 -3 10 -14 10 -12
0 -21 -4 -21 -10z"/>
<path d="M6336 4995 c-3 -9 0 -15 9 -15 8 0 15 7 15 15 0 8 -4 15 -9 15 -5 0
-11 -7 -15 -15z"/>
<path d="M6339 4948 c-1 -5 -2 -11 -3 -15 -1 -5 -5 -14 -9 -20 -6 -9 -2 -13
12 -13 12 0 21 3 20 8 -1 14 -18 47 -20 40z"/>
<path d="M6260 4909 c0 -5 5 -7 10 -4 6 3 10 8 10 11 0 2 -4 4 -10 4 -5 0 -10
-5 -10 -11z"/>
<path d="M6286 4893 c-6 -14 -5 -15 5 -6 7 7 10 15 7 18 -3 3 -9 -2 -12 -12z"/>
<path d="M6305 4881 c-3 -5 -1 -12 5 -16 5 -3 10 1 10 9 0 18 -6 21 -15 7z"/>
<path d="M6201 4814 c0 -11 3 -14 6 -6 3 7 2 16 -1 19 -3 4 -6 -2 -5 -13z"/>
<path d="M6225 4790 c-3 -5 -1 -10 4 -10 6 0 11 5 11 10 0 6 -2 10 -4 10 -3 0
-8 -4 -11 -10z"/>
<path d="M7540 2861 c0 -11 5 -23 10 -26 6 -4 10 5 10 19 0 14 -4 26 -10 26
-5 0 -10 -9 -10 -19z"/>
<path d="M6345 1160 c-3 -5 -1 -10 4 -10 6 0 11 5 11 10 0 6 -2 10 -4 10 -3 0
-8 -4 -11 -10z"/>
<path d="M6260 1080 c0 -5 5 -10 10 -10 6 0 10 5 10 10 0 6 -4 10 -10 10 -5 0
-10 -4 -10 -10z"/>
<path d="M6200 1030 c0 -5 5 -10 11 -10 5 0 7 5 4 10 -3 6 -8 10 -11 10 -2 0
-4 -4 -4 -10z"/>
<path d="M6040 906 c0 -2 7 -6 15 -10 8 -3 15 -1 15 4 0 6 -7 10 -15 10 -8 0
-15 -2 -15 -4z"/>
<path d="M5970 861 c0 -6 9 -9 20 -8 11 1 20 5 20 9 0 4 -9 8 -20 8 -11 0 -20
-4 -20 -9z"/>
<path d="M5950 834 c0 -8 5 -12 10 -9 6 4 8 11 5 16 -9 14 -15 11 -15 -7z"/>
<path d="M5670 659 c0 -5 5 -7 10 -4 6 3 10 8 10 11 0 2 -4 4 -10 4 -5 0 -10
-5 -10 -11z"/>
<path d="M5340 506 c0 -2 7 -6 15 -10 8 -3 15 -1 15 4 0 6 -7 10 -15 10 -8 0
-15 -2 -15 -4z"/>
<path d="M5248 463 c7 -3 16 -2 19 1 4 3 -2 6 -13 5 -11 0 -14 -3 -6 -6z"/>
<path d="M5208 443 c6 -2 18 -2 25 0 6 3 1 5 -13 5 -14 0 -19 -2 -12 -5z"/>
</g>
</svg>
